<mxfile host="app.diagrams.net" modified="2023-09-07T16:49:26.105Z" agent="Mozilla/5.0 (Macintosh; Intel Mac OS X 10_15_7) AppleWebKit/537.36 (KHTML, like Gecko) Chrome/116.0.0.0 Safari/537.36 Edg/116.0.1938.69" etag="uXQhS0S7o9ceBVlDhx9v" version="21.6.8" type="device">
  <diagram name="Page-1" id="74b105a0-9070-1c63-61bc-23e55f88626e">
    <mxGraphModel dx="4360.5" dy="1429" grid="1" gridSize="10" guides="1" tooltips="1" connect="1" arrows="1" fold="1" page="1" pageScale="1.5" pageWidth="1169" pageHeight="826" background="none" math="0" shadow="0">
      <root>
        <mxCell id="0" style=";html=1;" />
        <mxCell id="1" style=";html=1;" parent="0" />
        <mxCell id="Vt_JHXPXJQMZB4ipXUuL-1" value="&lt;b style=&quot;&quot;&gt;&lt;font style=&quot;font-size: 36px;&quot;&gt;SplashScreen&lt;/font&gt;&lt;/b&gt;&lt;br&gt;&lt;span style=&quot;font-size: 24px;&quot;&gt;- Animation&lt;/span&gt;&lt;br&gt;&lt;span style=&quot;font-size: 24px;&quot;&gt;- Initialize user&lt;/span&gt;&lt;br&gt;&lt;span style=&quot;font-size: 24px;&quot;&gt;- Initialize information about the city&lt;/span&gt;" style="rounded=0;whiteSpace=wrap;html=1;" vertex="1" parent="1">
          <mxGeometry x="-500" y="470" width="370" height="170" as="geometry" />
        </mxCell>
        <mxCell id="Vt_JHXPXJQMZB4ipXUuL-2" value="&lt;span style=&quot;font-size: 36px;&quot;&gt;&lt;b&gt;Login&lt;/b&gt;&lt;/span&gt;" style="rounded=0;whiteSpace=wrap;html=1;" vertex="1" parent="1">
          <mxGeometry x="-1040" y="470" width="370" height="170" as="geometry" />
        </mxCell>
        <mxCell id="Vt_JHXPXJQMZB4ipXUuL-3" value="&lt;span style=&quot;font-size: 36px;&quot;&gt;&lt;b&gt;Register&lt;/b&gt;&lt;/span&gt;" style="rounded=0;whiteSpace=wrap;html=1;" vertex="1" parent="1">
          <mxGeometry x="-760" y="790" width="370" height="170" as="geometry" />
        </mxCell>
        <mxCell id="Vt_JHXPXJQMZB4ipXUuL-4" value="" style="endArrow=classic;html=1;rounded=0;exitX=1;exitY=0.5;exitDx=0;exitDy=0;entryX=0;entryY=0.5;entryDx=0;entryDy=0;" edge="1" parent="1" source="Vt_JHXPXJQMZB4ipXUuL-2" target="Vt_JHXPXJQMZB4ipXUuL-1">
          <mxGeometry width="50" height="50" relative="1" as="geometry">
            <mxPoint x="-320" y="680" as="sourcePoint" />
            <mxPoint x="-270" y="630" as="targetPoint" />
          </mxGeometry>
        </mxCell>
        <mxCell id="Vt_JHXPXJQMZB4ipXUuL-5" value="" style="endArrow=classic;html=1;rounded=0;exitX=0.475;exitY=0.992;exitDx=0;exitDy=0;exitPerimeter=0;entryX=0.36;entryY=0.004;entryDx=0;entryDy=0;entryPerimeter=0;" edge="1" parent="1" source="Vt_JHXPXJQMZB4ipXUuL-2" target="Vt_JHXPXJQMZB4ipXUuL-3">
          <mxGeometry width="50" height="50" relative="1" as="geometry">
            <mxPoint x="-320" y="680" as="sourcePoint" />
            <mxPoint x="-270" y="630" as="targetPoint" />
          </mxGeometry>
        </mxCell>
        <mxCell id="Vt_JHXPXJQMZB4ipXUuL-6" value="" style="endArrow=classic;html=1;rounded=0;exitX=0.75;exitY=0;exitDx=0;exitDy=0;entryX=0.536;entryY=1;entryDx=0;entryDy=0;entryPerimeter=0;" edge="1" parent="1" source="Vt_JHXPXJQMZB4ipXUuL-3" target="Vt_JHXPXJQMZB4ipXUuL-1">
          <mxGeometry width="50" height="50" relative="1" as="geometry">
            <mxPoint x="-390" y="799" as="sourcePoint" />
            <mxPoint x="-153" y="951" as="targetPoint" />
          </mxGeometry>
        </mxCell>
        <mxCell id="Vt_JHXPXJQMZB4ipXUuL-7" value="&lt;font style=&quot;font-size: 18px;&quot;&gt;Register&lt;/font&gt;" style="text;html=1;strokeColor=none;fillColor=none;align=center;verticalAlign=middle;whiteSpace=wrap;rounded=0;" vertex="1" parent="1">
          <mxGeometry x="-760" y="670" width="60" height="30" as="geometry" />
        </mxCell>
        <mxCell id="Vt_JHXPXJQMZB4ipXUuL-8" value="&lt;font style=&quot;font-size: 18px;&quot;&gt;Login&lt;/font&gt;" style="text;html=1;strokeColor=none;fillColor=none;align=center;verticalAlign=middle;whiteSpace=wrap;rounded=0;" vertex="1" parent="1">
          <mxGeometry x="-620" y="520" width="60" height="30" as="geometry" />
        </mxCell>
        <mxCell id="Vt_JHXPXJQMZB4ipXUuL-9" value="" style="endArrow=classic;html=1;rounded=0;exitX=1;exitY=0.5;exitDx=0;exitDy=0;entryX=0;entryY=0.5;entryDx=0;entryDy=0;" edge="1" parent="1">
          <mxGeometry width="50" height="50" relative="1" as="geometry">
            <mxPoint x="-130" y="554.33" as="sourcePoint" />
            <mxPoint x="40" y="554.33" as="targetPoint" />
          </mxGeometry>
        </mxCell>
        <mxCell id="Vt_JHXPXJQMZB4ipXUuL-10" value="&lt;b style=&quot;&quot;&gt;&lt;font style=&quot;font-size: 36px;&quot;&gt;MainActivity&lt;/font&gt;&lt;/b&gt;&lt;br&gt;&lt;span style=&quot;font-size: 24px;&quot;&gt;- Show tourist attractions&lt;br&gt;- Show local recommends&lt;br&gt;- Show nearby places&lt;br&gt;- Weather information&lt;br&gt;&lt;/span&gt;" style="rounded=0;whiteSpace=wrap;html=1;" vertex="1" parent="1">
          <mxGeometry x="40" y="470" width="370" height="170" as="geometry" />
        </mxCell>
        <mxCell id="Vt_JHXPXJQMZB4ipXUuL-11" value="" style="endArrow=classic;html=1;rounded=0;exitX=1;exitY=0.5;exitDx=0;exitDy=0;entryX=0;entryY=0.5;entryDx=0;entryDy=0;" edge="1" parent="1">
          <mxGeometry width="50" height="50" relative="1" as="geometry">
            <mxPoint x="410" y="560" as="sourcePoint" />
            <mxPoint x="580" y="560" as="targetPoint" />
          </mxGeometry>
        </mxCell>
        <mxCell id="Vt_JHXPXJQMZB4ipXUuL-12" value="&lt;b style=&quot;&quot;&gt;&lt;font style=&quot;font-size: 36px;&quot;&gt;PlaceView&lt;/font&gt;&lt;/b&gt;&lt;br&gt;&lt;span style=&quot;font-size: 24px;&quot;&gt;- Load detail&lt;br&gt;- Load images&lt;br&gt;- Load reviews&lt;br&gt;&lt;/span&gt;" style="rounded=0;whiteSpace=wrap;html=1;" vertex="1" parent="1">
          <mxGeometry x="580" y="470" width="370" height="170" as="geometry" />
        </mxCell>
        <mxCell id="Vt_JHXPXJQMZB4ipXUuL-13" value="&lt;b style=&quot;&quot;&gt;&lt;font style=&quot;font-size: 36px;&quot;&gt;SuggestPlace&lt;/font&gt;&lt;/b&gt;&lt;br&gt;&lt;span style=&quot;font-size: 24px;&quot;&gt;- Autocomplete API&lt;br&gt;- Upload images to Firebase Storage&lt;br&gt;&lt;/span&gt;" style="rounded=0;whiteSpace=wrap;html=1;" vertex="1" parent="1">
          <mxGeometry x="580" y="700" width="370" height="170" as="geometry" />
        </mxCell>
        <mxCell id="Vt_JHXPXJQMZB4ipXUuL-14" value="&lt;b style=&quot;&quot;&gt;&lt;font style=&quot;font-size: 36px;&quot;&gt;CreateSchedule&lt;/font&gt;&lt;/b&gt;&lt;br&gt;&lt;span style=&quot;font-size: 24px;&quot;&gt;- Load previous schedules&lt;br&gt;- Resume a schedule&lt;br&gt;&lt;/span&gt;" style="rounded=0;whiteSpace=wrap;html=1;" vertex="1" parent="1">
          <mxGeometry x="580" y="940" width="370" height="170" as="geometry" />
        </mxCell>
        <mxCell id="Vt_JHXPXJQMZB4ipXUuL-15" value="&lt;b style=&quot;&quot;&gt;&lt;font style=&quot;font-size: 36px;&quot;&gt;SearchPlace&lt;/font&gt;&lt;/b&gt;&lt;span style=&quot;font-size: 24px;&quot;&gt;&lt;br&gt;&lt;/span&gt;" style="rounded=0;whiteSpace=wrap;html=1;" vertex="1" parent="1">
          <mxGeometry x="580" y="230" width="370" height="170" as="geometry" />
        </mxCell>
        <mxCell id="Vt_JHXPXJQMZB4ipXUuL-16" value="&lt;b style=&quot;&quot;&gt;&lt;font style=&quot;font-size: 36px;&quot;&gt;UserDetail&lt;/font&gt;&lt;/b&gt;&lt;br&gt;&lt;span style=&quot;font-size: 24px;&quot;&gt;- Change display name&lt;br&gt;- Change password&lt;br&gt;- Log out&lt;br&gt;&lt;/span&gt;" style="rounded=0;whiteSpace=wrap;html=1;" vertex="1" parent="1">
          <mxGeometry x="60" y="100" width="370" height="170" as="geometry" />
        </mxCell>
        <mxCell id="Vt_JHXPXJQMZB4ipXUuL-17" value="" style="endArrow=classic;html=1;rounded=0;exitX=0.583;exitY=1.001;exitDx=0;exitDy=0;entryX=0;entryY=0.5;entryDx=0;entryDy=0;exitPerimeter=0;" edge="1" parent="1" source="Vt_JHXPXJQMZB4ipXUuL-10" target="Vt_JHXPXJQMZB4ipXUuL-13">
          <mxGeometry width="50" height="50" relative="1" as="geometry">
            <mxPoint x="240" y="698.1800000000001" as="sourcePoint" />
            <mxPoint x="410" y="698.1800000000001" as="targetPoint" />
          </mxGeometry>
        </mxCell>
        <mxCell id="Vt_JHXPXJQMZB4ipXUuL-18" value="" style="endArrow=classic;html=1;rounded=0;exitX=0.303;exitY=1.001;exitDx=0;exitDy=0;entryX=-0.011;entryY=0.418;entryDx=0;entryDy=0;exitPerimeter=0;entryPerimeter=0;" edge="1" parent="1" source="Vt_JHXPXJQMZB4ipXUuL-10" target="Vt_JHXPXJQMZB4ipXUuL-14">
          <mxGeometry width="50" height="50" relative="1" as="geometry">
            <mxPoint x="100" y="690" as="sourcePoint" />
            <mxPoint x="424" y="835" as="targetPoint" />
          </mxGeometry>
        </mxCell>
        <mxCell id="Vt_JHXPXJQMZB4ipXUuL-19" value="" style="endArrow=classic;html=1;rounded=0;exitX=0.603;exitY=-0.016;exitDx=0;exitDy=0;entryX=0.004;entryY=0.84;entryDx=0;entryDy=0;exitPerimeter=0;entryPerimeter=0;" edge="1" parent="1" source="Vt_JHXPXJQMZB4ipXUuL-10" target="Vt_JHXPXJQMZB4ipXUuL-15">
          <mxGeometry width="50" height="50" relative="1" as="geometry">
            <mxPoint x="260" y="430" as="sourcePoint" />
            <mxPoint x="430" y="430" as="targetPoint" />
          </mxGeometry>
        </mxCell>
        <mxCell id="Vt_JHXPXJQMZB4ipXUuL-20" value="" style="endArrow=classic;html=1;rounded=0;exitX=0.465;exitY=-0.005;exitDx=0;exitDy=0;entryX=0.402;entryY=1.017;entryDx=0;entryDy=0;exitPerimeter=0;entryPerimeter=0;" edge="1" parent="1" source="Vt_JHXPXJQMZB4ipXUuL-10" target="Vt_JHXPXJQMZB4ipXUuL-16">
          <mxGeometry width="50" height="50" relative="1" as="geometry">
            <mxPoint x="112" y="400" as="sourcePoint" />
            <mxPoint x="430" y="306" as="targetPoint" />
          </mxGeometry>
        </mxCell>
      </root>
    </mxGraphModel>
  </diagram>
</mxfile>
